<svg xmlns="http://www.w3.org/2000/svg"
    width="81"
    height="87"
    viewBox="0 0 81 87">

    <g transform="translate(0, 87) scale(0.05, -0.05)"
        fill="#514d4d"
        stroke="none">
        <path d="M549 1671 c-63 -63 -63 -140 1 -199 69 -65 77 -406 10 -447 -22 -14
-40 -43 -40 -65 0 -26 -13 -40 -39 -40 -21 0 -44 -9 -51 -20 -7 -11 -34 -20
-61 -20 -27 0 -49 9 -49 20 0 36 -99 21 -150 -24 -73 -63 -75 -325 -4 -393 50
-47 104 -56 125 -21 9 14 95 19 251 15 214 -6 284 3 213 29 -14 5 17 8 69 8
52 -1 90 -8 84 -17 -6 -10 1 -17 14 -17 13 0 3 -18 -22 -40 -54 -47 -63 -48
-99 -15 -22 20 -25 18 -14 -12 10 -27 6 -34 -15 -26 -16 6 -34 -4 -42 -23 -11
-29 -17 -27 -40 16 -14 27 -22 56 -17 65 5 8 -45 15 -111 15 -66 0 -125 -9
-132 -20 -7 -11 -32 -30 -56 -43 -42 -22 -42 -21 -14 17 17 21 -8 -2 -55 -52
-102 -110 -108 -93 69 -230 l144 -112 113 79 c204 143 523 207 798 161 59 -10
60 -9 115 168 30 98 50 185 45 194 -16 25 -212 93 -315 108 l-94 15 -3 -108
c-2 -59 -2 -122 -1 -140 2 -24 -9 -30 -37 -22 -28 7 -39 1 -35 -17 11 -54 -98
-45 -134 10 -39 59 -25 93 36 90 34 -2 36 -5 9 -12 -40 -10 -46 -37 -12 -58
14 -9 18 -5 9 9 -9 14 -2 23 17 23 42 0 39 -55 -4 -67 -27 -8 -26 -10 5 -7 22
3 43 22 47 44 12 64 46 98 66 66 9 -15 17 39 17 127 0 176 -22 209 -125 188
-36 -7 -128 -16 -205 -20 -77 -4 -111 -3 -75 2 36 5 61 18 54 28 -6 11 -3 19
8 19 11 0 24 -9 30 -20 5 -12 8 -10 5 4 -3 15 -25 29 -49 32 -31 5 -43 21 -43
57 0 32 -13 54 -35 60 -60 16 -51 384 10 433 65 53 61 158 -8 213 -69 54 -118
52 -178 -8z m167 -45 c7 -50 -73 -113 -130 -102 -44 8 -59 87 -24 128 38 47
147 28 154 -26z m-77 -545 c-11 -20 -17 29 -16 139 l2 170 16 -139 c10 -80 9
-152 -2 -170z m-3 -85 c29 -29 -5 -76 -56 -76 -26 0 -32 12 -25 50 10 54 43
64 81 26z m13 -114 c-11 -10 -54 -11 -99 -2 l-80 15 99 3 c60 1 91 -5 80 -16z
m-12 -61 c125 -24 179 -81 135 -144 -36 -52 -42 -86 -12 -67 35 22 22 -2 -23
-42 -24 -21 -37 -26 -28 -11 13 22 6 24 -31 10 -27 -9 -93 -15 -148 -12 -145
7 -253 8 -310 1 -49 -6 -50 -3 -56 139 l-6 145 196 -1 c108 0 235 -8 283 -18z
m499 -83 c7 -112 -41 -185 -111 -166 -59 17 -60 108 -3 202 60 96 106 81 114
-36z m113 -176 c6 -10 31 -13 54 -7 35 9 41 5 30 -23 -7 -20 -13 -43 -13 -52
0 -10 -18 -16 -40 -15 -22 2 -40 13 -40 24 0 12 -9 8 -20 -9 -15 -23 -19 -14
-20 35 0 62 25 86 49 47z m211 -46 c0 -11 -14 -15 -31 -8 -17 6 -26 3 -20 -7
6 -9 0 -22 -14 -28 -15 -6 -11 -10 10 -11 19 -1 35 -12 35 -23 0 -13 -18 -16
-45 -8 -61 19 -62 20 -48 75 13 49 113 57 113 10z m-835 -10 c-36 -5 -94 -5
-130 0 -36 4 -7 8 65 8 72 0 101 -4 65 -8z m29 -99 c-7 -7 -4 -29 7 -48 27
-52 -8 -64 -48 -17 -38 44 -28 78 22 78 17 0 26 -6 19 -13z m-111 -73 c-28
-35 -5 -61 28 -33 17 14 30 14 38 1 20 -33 -66 -69 -100 -41 -38 32 -37 59 6
90 42 31 59 20 28 -17z m946 -19 c-9 -25 -44 -28 -195 -21 -252 13 -268 25
-25 21 144 -2 201 4 207 22 4 14 12 22 17 17 4 -5 3 -22 -4 -39z m-993 -59
c33 -33 30 -56 -7 -56 -17 0 -26 -9 -19 -20 21 -34 -22 -22 -57 16 -53 59 27
116 83 60z"/>
    </g>
</svg>
