<svg version="1.0"
    xmlns="http://www.w3.org/2000/svg"
    width="100"
    height="100"
    viewBox="-50 0 1000 1000"
    preserveAspectRatio="xMidYMid meet">
    <g transform="translate(0,950) scale(0.1,-0.1)"
        fill="rgba(255,255,255,.75)"
        stroke="none">
<path d="M4365 9350 c-498 -38 -961 -143 -1415 -322 -173 -68 -518 -240 -683
-340 -1240 -752 -2058 -2015 -2231 -3443 -125 -1033 95 -2074 625 -2960 398
-664 941 -1210 1606 -1613 165 -100 510 -272 683 -340 214 -84 460 -161 660
-207 627 -144 1252 -162 1874 -55 1126 193 2143 796 2860 1694 135 168 317
430 305 439 -2 2 -894 559 -1981 1238 -1088 679 -1978 1236 -1978 1239 0 3
890 560 1978 1239 1087 679 1979 1236 1981 1238 12 9 -173 275 -314 450 -308
384 -671 714 -1087 987 -632 414 -1333 663 -2089 741 -183 19 -625 27 -794 15z"/>
    </g>
</svg>
